<?xml version="1.0" standalone="no"?>
<!DOCTYPE svg PUBLIC "-//W3C//DTD SVG 20010904//EN"
 "http://www.w3.org/TR/2001/REC-SVG-20010904/DTD/svg10.dtd">
<svg version="1.0" xmlns="http://www.w3.org/2000/svg"
 width="960.000000pt" height="960.000000pt" viewBox="0 0 960.000000 960.000000"
 preserveAspectRatio="xMidYMid meet">
<metadata>
Created by potrace 1.15, written by Peter Selinger 2001-2017
</metadata>
<g transform="translate(0.000000,960.000000) scale(0.100000,-0.100000)"
fill="#000000" stroke="none">
<path d="M4460 9289 c-1125 -85 -2164 -570 -2950 -1375 -491 -504 -842 -1073
-1069 -1738 -150 -439 -228 -885 -238 -1371 -8 -383 19 -688 92 -1043 309
-1500 1369 -2763 2793 -3331 1160 -462 2459 -438 3592 69 851 380 1596 1041
2073 1840 365 612 578 1280 638 2007 24 295 3 804 -47 1098 -196 1168 -805
2182 -1749 2912 -693 537 -1573 869 -2470 933 -160 11 -510 11 -665 -1z m808
-1038 c1134 -159 2091 -808 2651 -1798 l51 -91 323 1 c177 0 349 -3 382 -7
l61 -7 -6 -46 -5 -46 -410 -2 c-268 -2 -479 -8 -610 -19 -871 -71 -1719 -209
-2735 -445 -491 -114 -796 -178 -1210 -255 -135 -25 -270 -51 -300 -56 -306
-57 -1020 -156 -1410 -194 -367 -36 -968 -71 -1132 -65 l-58 2 0 54 0 53 86 0
87 0 161 157 c89 87 163 164 164 173 2 8 24 78 49 155 376 1156 1338 2058
2513 2355 204 52 356 76 645 104 22 2 157 2 300 1 190 -3 298 -9 403 -24z
m3300 -2412 c3 -24 -2 -28 -43 -38 -77 -19 -75 -8 -75 -558 0 -500 -2 -523
-43 -531 -34 -7 -28 -15 -301 403 -76 116 -177 270 -224 342 -48 73 -92 133
-99 133 -9 0 -12 -76 -12 -312 -1 -319 7 -430 32 -455 8 -8 36 -17 63 -21 36
-5 50 -12 52 -26 6 -31 -14 -39 -110 -41 -51 -1 -118 -7 -148 -13 -30 -6 -111
-14 -180 -17 -71 -3 -161 -14 -208 -25 -96 -23 -129 -25 -135 -7 -8 25 6 44
49 65 54 27 55 32 6 177 l-37 110 -40 3 c-52 5 -211 -18 -231 -32 -21 -16 -54
-139 -54 -203 0 -59 18 -79 82 -89 47 -8 63 -25 49 -52 -8 -16 -29 -21 -127
-31 -64 -6 -132 -18 -152 -27 -44 -18 -62 -12 -62 21 0 18 11 31 40 50 22 14
46 37 54 52 7 16 82 246 166 513 83 267 159 501 168 520 19 40 63 61 90 44 11
-7 65 -150 145 -385 217 -633 205 -605 271 -627 33 -11 43 -10 82 7 28 13 48
29 54 46 16 41 13 877 -2 898 -7 9 -30 19 -52 22 -47 6 -50 8 -42 38 6 27 8
27 246 43 l96 6 209 -316 c116 -173 215 -314 220 -312 6 2 10 97 10 259 0 244
-1 257 -21 284 -15 20 -35 31 -70 39 -35 7 -50 15 -53 29 -6 34 21 40 180 40
l154 0 3 -26z m-2138 -197 l35 -17 9 -93 c9 -105 6 -122 -27 -122 -17 0 -28
11 -44 44 -33 68 -79 114 -126 127 -145 39 -292 -103 -358 -347 -30 -109 -33
-349 -6 -439 37 -119 102 -209 170 -234 38 -15 126 -14 157 2 52 26 61 66 58
243 -3 185 -7 194 -73 194 -46 0 -62 17 -46 49 7 13 35 19 128 29 65 7 154 22
198 33 112 30 119 29 123 -4 3 -23 -2 -30 -32 -42 -62 -26 -66 -40 -66 -225 0
-188 -5 -205 -81 -259 -80 -58 -284 -121 -393 -121 -63 0 -143 18 -196 45
-228 115 -288 490 -127 800 61 117 183 238 297 294 100 49 143 58 270 60 72 1
103 -3 130 -17z m-861 -156 c17 -21 4 -42 -39 -59 -77 -30 -74 -8 -80 -582 -4
-280 -7 -511 -8 -512 -12 -13 -47 -23 -62 -18 -11 3 -110 131 -222 283 -111
152 -240 329 -287 392 l-86 115 -3 -363 c-2 -278 1 -370 10 -390 12 -24 20
-27 71 -30 53 -3 57 -5 57 -27 0 -32 -19 -41 -122 -54 -48 -6 -106 -18 -129
-26 -49 -18 -75 -19 -84 -5 -12 20 6 45 44 61 78 33 76 19 76 505 0 343 -3
434 -13 447 -8 9 -32 17 -55 19 -29 2 -43 8 -45 19 -5 27 24 46 80 53 29 4 98
18 153 31 l99 23 31 -32 c16 -18 113 -143 214 -279 101 -136 190 -247 198
-247 10 0 13 46 13 238 0 135 -5 253 -11 275 -11 42 -43 61 -90 53 -36 -5 -55
15 -40 43 11 20 27 25 131 36 30 4 78 14 105 24 63 23 80 24 94 7z m-1091
-316 c4 -128 -2 -160 -32 -160 -18 0 -32 13 -56 50 -44 68 -77 84 -157 77 -70
-7 -99 -19 -125 -51 -15 -18 -18 -45 -18 -184 0 -188 -3 -182 92 -162 76 17
108 44 132 111 23 65 34 81 55 77 13 -3 15 -30 16 -192 0 -148 -3 -192 -13
-203 -22 -21 -34 -12 -67 51 -16 31 -37 61 -45 66 -20 13 -72 12 -126 -1 l-44
-11 0 -200 c0 -247 4 -258 93 -258 99 0 193 73 252 197 39 81 68 106 85 74 7
-14 6 -49 -5 -123 -21 -145 -24 -157 -44 -168 -10 -5 -76 -16 -147 -25 -164
-20 -369 -58 -479 -90 -100 -29 -111 -30 -119 -10 -10 26 4 42 50 60 78 29 74
5 74 502 l0 442 -22 15 c-12 9 -40 16 -61 16 -25 0 -40 5 -44 16 -11 30 23 46
129 60 132 17 324 56 458 94 58 16 119 28 135 27 l30 -2 3 -95z m-1043 -110
c14 -22 -7 -50 -45 -61 -22 -7 -49 -21 -60 -31 -20 -19 -21 -26 -18 -465 l3
-445 25 -20 c28 -23 70 -19 131 12 53 28 89 69 135 157 29 55 48 79 63 81 26
4 27 -15 9 -167 -10 -87 -15 -105 -34 -117 -12 -8 -81 -21 -155 -29 -179 -20
-306 -41 -411 -66 -95 -23 -118 -21 -118 11 0 14 12 26 38 37 78 36 72 -7 72
498 0 359 -3 455 -13 463 -7 6 -32 14 -56 18 -38 6 -42 9 -39 33 4 30 18 35
168 50 58 6 137 19 175 30 80 22 121 25 130 11z m-1291 -166 c9 -4 16 -18 16
-34 0 -24 -5 -29 -44 -39 -82 -20 -77 13 -74 -493 3 -432 4 -450 22 -464 47
-34 160 -3 210 57 13 16 41 60 62 98 39 73 52 85 74 71 11 -7 11 -28 1 -122
-7 -62 -15 -123 -18 -135 -7 -32 -49 -40 -249 -47 -94 -3 -216 -11 -270 -18
-54 -6 -117 -12 -139 -12 -36 -1 -40 2 -43 25 -3 22 2 27 37 38 75 22 71 -9
71 490 0 499 5 465 -69 486 -29 9 -36 16 -36 35 l0 25 150 7 c115 5 261 25
282 37 1 1 8 -2 17 -5z m-536 -77 c-2 -15 -14 -25 -38 -32 -19 -5 -44 -15 -55
-22 -20 -11 -20 -22 -20 -463 l0 -452 24 -19 c13 -10 33 -19 45 -19 34 0 49
-15 43 -42 l-6 -24 -178 -3 c-98 -1 -198 -3 -223 -4 -44 -2 -45 -1 -45 28 0
22 5 31 20 33 42 7 73 25 79 45 3 12 6 216 6 453 0 329 -3 434 -12 447 -7 9
-31 23 -53 30 -32 11 -41 20 -43 40 -2 17 2 27 10 28 7 0 78 0 158 0 80 -1
170 3 200 7 65 10 93 0 88 -31z m1292 -452 c0 -30 -43 -190 -54 -203 -11 -12
-324 -58 -333 -49 -6 6 39 200 49 212 4 5 72 19 151 31 181 27 187 27 187 9z
m5818 -64 c62 -5 115 -11 117 -13 3 -3 2 -25 -1 -50 l-6 -45 -244 5 -243 5 -5
-24 c-3 -13 -10 -55 -17 -94 -6 -38 -26 -134 -45 -211 -156 -664 -518 -1289
-1018 -1760 -107 -101 -111 -103 -129 -85 -18 17 -16 20 54 87 113 108 251
252 320 334 277 330 503 735 638 1140 73 218 157 588 138 607 -9 8 -529 -16
-539 -25 -4 -4 -20 -61 -37 -128 -295 -1172 -1242 -2033 -2441 -2218 -718
-111 -1481 59 -2094 467 -337 225 -621 511 -836 840 -50 77 -80 114 -90 112
-13 -4 -300 -30 -532 -50 -43 -4 -78 -9 -78 -11 0 -3 23 -48 52 -102 179 -337
375 -600 645 -870 147 -145 163 -164 153 -182 -11 -20 -13 -19 -58 19 -72 61
-290 286 -369 381 -164 199 -324 443 -432 659 -47 92 -55 102 -74 97 -12 -4
-163 -9 -334 -13 l-313 -6 0 50 0 50 238 7 c585 17 1129 68 1837 172 261 39
642 104 935 159 148 29 198 42 250 70 154 80 395 135 598 135 100 0 138 6 350
54 974 224 1914 370 2702 421 368 24 712 30 908 16z m-5854 -2301 c18 -10 42
-37 54 -59 l23 -41 -27 -12 c-24 -11 -28 -10 -38 7 -35 61 -86 83 -106 45 -9
-16 -4 -33 25 -86 44 -84 46 -125 6 -165 -49 -49 -128 -36 -184 31 -33 39 -43
70 -26 81 26 16 47 9 59 -22 16 -38 52 -63 79 -54 34 10 34 40 1 104 -39 78
-40 128 -4 165 33 32 92 35 138 6z m3946 -5 c7 -14 11 -27 9 -28 -2 -2 -32
-23 -66 -46 -35 -23 -63 -45 -63 -49 0 -4 11 -20 24 -37 l24 -29 57 37 c54 36
58 37 71 20 22 -29 17 -38 -41 -77 l-55 -36 22 -35 c13 -19 27 -35 32 -35 5 0
39 19 74 42 62 40 65 41 78 23 8 -11 13 -24 11 -30 -4 -12 -167 -123 -183
-124 -12 -1 -196 274 -198 296 -1 11 168 133 185 133 3 0 12 -11 19 -25z
m-3740 -133 l22 -18 -57 -99 c-32 -55 -66 -114 -77 -132 l-19 -32 60 -33 c64
-35 69 -43 47 -73 -13 -18 -17 -16 -101 31 -48 27 -87 53 -87 57 0 15 174 317
182 317 4 0 18 -8 30 -18z m3478 -37 c7 -14 12 -27 12 -29 0 -1 -31 -17 -70
-36 -38 -19 -70 -38 -70 -42 0 -5 9 -27 20 -49 l21 -40 60 33 c59 32 61 33 75
14 8 -11 14 -23 14 -28 0 -6 -89 -62 -113 -70 -4 -2 8 -31 25 -66 32 -62 33
-63 14 -77 -30 -23 -40 -18 -64 28 -11 23 -48 93 -82 155 -33 62 -60 116 -60
121 0 7 187 110 201 111 3 0 11 -11 17 -25z m-3128 -340 c0 -113 -2 -205 -5
-205 -2 0 -16 5 -30 12 -20 9 -25 18 -25 48 0 37 -1 38 -75 70 l-76 33 -24
-23 c-21 -20 -30 -22 -53 -14 -15 5 -27 14 -27 20 0 14 286 263 303 264 9 0
12 -47 12 -205z m2843 33 c78 -73 142 -137 142 -142 0 -6 -12 -15 -27 -20 -23
-8 -32 -6 -53 14 l-24 23 -76 -28 -75 -27 0 -39 c0 -33 -4 -41 -26 -49 -14 -6
-29 -10 -33 -10 -5 0 -7 42 -5 93 11 246 17 317 26 317 5 0 73 -59 151 -132z
m-2464 26 c34 -13 100 -79 90 -88 -2 -2 -15 -9 -28 -16 -20 -10 -26 -9 -50 14
-55 52 -129 50 -175 -4 -74 -89 -15 -206 100 -199 41 3 48 0 60 -23 13 -25 12
-27 -18 -37 -71 -25 -143 -7 -196 50 -41 43 -56 89 -50 150 13 128 143 203
267 153z m2124 -13 c4 -4 5 -20 2 -34 -6 -24 -10 -26 -54 -20 -112 13 -181
-95 -118 -188 41 -61 135 -71 182 -19 21 23 34 25 59 7 17 -13 18 -15 2 -38
-26 -41 -90 -71 -149 -71 -111 -1 -189 79 -188 194 0 108 101 196 211 183 24
-3 48 -9 53 -14z m-1897 -51 c18 0 18 -30 0 -97 -8 -29 -11 -53 -7 -53 4 0 41
25 81 55 73 55 108 66 140 45 10 -7 12 -12 4 -17 -80 -56 -164 -120 -164 -126
0 -5 23 -50 50 -101 28 -51 50 -98 50 -104 0 -19 -48 -14 -69 7 -11 11 -39 58
-63 106 l-42 86 -16 -73 c-9 -40 -19 -78 -22 -84 -6 -9 -68 -8 -68 2 0 9 71
340 75 353 3 7 12 10 21 7 9 -3 22 -6 30 -6z m1414 -69 c0 -31 1 -31 -114 -47
l-48 -7 6 -45 c3 -25 8 -47 10 -50 2 -2 33 1 68 6 68 10 80 5 76 -33 -3 -17
-14 -21 -71 -29 l-69 -9 6 -31 c21 -116 21 -113 -14 -118 -18 -3 -34 0 -36 6
-6 16 -53 350 -50 353 5 5 171 31 204 32 29 1 32 -2 32 -28z m-744 -33 c62
-29 97 -82 102 -157 6 -89 -32 -153 -111 -186 -160 -67 -320 94 -248 250 47
102 155 141 257 93z m432 -9 c3 -25 0 -26 -50 -32 -29 -4 -68 -7 -87 -7 -32 0
-33 -1 -27 -31 3 -17 6 -40 6 -51 0 -18 6 -20 68 -16 l67 3 3 -32 3 -33 -72 0
-71 0 7 -75 7 -75 -35 0 -35 0 -6 108 c-4 59 -9 142 -12 184 l-6 77 64 4 c34
2 88 3 118 3 52 -1 55 -3 58 -27z"/>
<path d="M4590 8224 c-489 -36 -929 -154 -1350 -364 -839 -418 -1463 -1131
-1774 -2028 -20 -57 -36 -109 -36 -115 0 -6 15 3 33 20 123 116 796 657 1166
939 79 60 192 152 250 204 59 52 157 140 219 195 62 55 129 108 150 117 49 23
114 23 160 0 20 -11 60 -27 88 -37 l52 -18 139 129 c111 103 149 133 192 148
63 22 158 18 211 -9 19 -9 203 -126 407 -259 205 -132 411 -266 458 -296 47
-30 170 -109 273 -176 103 -67 193 -124 200 -128 7 -4 128 63 300 167 158 96
305 180 326 187 50 16 159 8 207 -15 l36 -17 74 49 c161 109 252 139 390 131
172 -11 289 -70 739 -372 190 -128 351 -236 359 -241 39 -23 -179 309 -315
480 -108 135 -395 423 -527 529 -527 420 -1115 671 -1777 757 -150 19 -519 32
-650 23z m1006 -759 c9 -23 -42 -101 -93 -142 -65 -53 -118 -109 -139 -149
-10 -19 -22 -34 -26 -34 -4 0 -12 18 -18 39 -24 90 34 211 130 269 60 36 136
45 146 17z m69 -123 c-1 -100 -54 -184 -147 -234 -36 -20 -123 -24 -133 -8
-12 19 53 105 130 174 41 37 87 88 101 112 35 59 49 45 49 -44z"/>
<path d="M3897 7366 c-47 -17 -63 -31 -262 -219 -38 -37 -75 -67 -81 -67 -7 0
-55 18 -108 40 -53 22 -105 40 -116 40 -46 0 -99 -37 -267 -187 -247 -221
-234 -211 -478 -398 -536 -412 -921 -727 -1235 -1011 -162 -147 -236 -221
-227 -230 9 -9 227 7 227 17 0 4 -5 11 -10 14 -12 7 -14 35 -2 35 4 0 15 -14
24 -30 14 -24 24 -30 53 -30 19 0 35 5 35 11 0 6 -14 31 -31 55 -19 28 -28 52
-24 62 4 12 17 -2 46 -51 39 -65 41 -67 80 -67 29 0 38 3 33 13 -4 6 -29 44
-56 84 -49 74 -55 88 -39 98 5 3 35 -39 67 -92 31 -54 58 -100 60 -102 2 -2
19 1 39 5 l35 9 -76 114 c-50 75 -72 117 -66 123 6 6 14 8 20 4 5 -3 40 -60
78 -126 69 -120 69 -120 107 -120 20 0 37 3 37 7 0 4 -41 70 -92 146 -80 121
-90 140 -77 153 13 12 26 -4 104 -141 l90 -155 38 0 c20 0 37 3 37 7 0 3 -47
77 -105 164 -58 87 -105 163 -105 168 0 5 6 13 13 19 10 9 35 -27 118 -168
l104 -180 38 0 c20 0 37 3 37 6 0 5 -93 149 -201 310 -46 69 -47 72 -30 88 17
16 23 8 116 -151 54 -92 108 -185 119 -205 18 -33 26 -38 59 -38 20 0 37 2 37
5 0 2 -63 100 -140 217 -136 207 -140 213 -122 231 19 18 22 14 129 -170 61
-103 121 -207 134 -230 22 -39 28 -43 62 -43 20 0 37 2 37 5 0 3 -70 111 -156
241 l-157 236 21 20 20 20 42 -73 c24 -41 62 -105 85 -144 23 -38 70 -120 106
-182 63 -111 64 -112 102 -113 20 0 37 2 37 5 0 2 -76 120 -170 261 -93 142
-170 261 -170 265 0 7 32 29 43 29 2 0 75 -124 163 -275 l159 -275 35 3 c19 1
34 7 32 12 -1 6 -84 133 -184 284 l-180 273 21 21 c21 21 21 21 35 2 8 -11 45
-72 81 -135 207 -360 261 -445 283 -448 61 -9 53 7 -150 312 -109 165 -197
305 -194 312 3 7 13 17 24 23 17 9 25 0 71 -77 28 -48 113 -193 189 -322 131
-222 140 -235 167 -233 15 1 30 4 32 7 3 3 -90 149 -207 326 -207 312 -212
321 -195 340 10 11 23 20 29 20 6 0 60 -84 120 -188 136 -232 264 -450 281
-478 l13 -21 164 23 c285 40 792 123 908 149 8 2 38 6 66 10 82 11 83 14 31
96 -43 66 -54 89 -43 89 2 0 17 -21 32 -47 68 -118 70 -120 103 -115 17 2 31
7 31 11 0 4 -31 55 -70 115 -65 100 -83 135 -61 121 5 -3 40 -57 76 -120 67
-115 78 -125 119 -109 20 8 18 12 -92 177 -55 82 -82 131 -76 137 6 6 43 -47
102 -148 l93 -158 34 4 c19 2 35 6 35 8 0 1 -53 85 -119 184 -82 125 -117 188
-114 201 4 14 38 -35 125 -181 l119 -201 31 6 c51 12 62 13 86 14 12 1 22 5
22 11 0 8 -459 709 -542 828 -27 39 -29 45 -15 60 8 9 17 25 18 35 4 16 85
-118 433 -715 120 -206 121 -207 151 -202 17 4 31 8 33 9 5 4 -608 930 -616
930 -4 1 -27 8 -52 18 -25 9 -99 26 -164 37 -66 11 -124 24 -130 30 -7 7 -6
17 3 32 58 92 63 110 58 193 -3 44 -9 89 -13 100 -8 21 64 -28 449 -301 l229
-162 82 -138 c45 -77 124 -211 175 -299 52 -88 106 -180 121 -205 15 -25 44
-75 66 -112 38 -67 59 -81 90 -60 7 4 -63 120 -197 322 -297 448 -315 477
-287 457 12 -9 39 -27 59 -39 31 -18 67 -74 213 -323 255 -437 240 -413 270
-408 14 3 26 9 26 14 0 4 -76 122 -168 261 -157 236 -234 353 -256 387 -5 8
17 -3 48 -25 53 -37 64 -53 227 -331 165 -281 173 -292 198 -286 14 3 27 7 29
8 2 2 -74 119 -168 260 -94 141 -170 258 -168 260 2 2 23 -11 48 -29 38 -28
66 -70 174 -257 72 -123 131 -226 133 -228 1 -2 16 0 32 5 l29 9 -130 194
c-71 106 -127 196 -124 198 2 3 16 -2 30 -9 24 -12 61 -69 201 -310 22 -38 46
-68 55 -68 44 1 38 18 -61 169 -55 84 -99 155 -97 157 2 2 16 -4 31 -14 16
-10 59 -72 106 -152 44 -77 85 -136 95 -138 49 -10 44 8 -33 125 -43 65 -77
119 -76 121 1 1 13 -2 26 -8 15 -7 48 -53 86 -119 58 -99 65 -108 89 -103 30
5 28 12 -24 90 -58 85 -57 84 -29 71 13 -6 41 -40 61 -75 44 -74 47 -77 75
-66 21 7 21 8 -4 44 -14 20 -25 40 -25 43 0 15 42 -19 56 -46 13 -26 20 -30
42 -25 15 4 36 8 47 10 11 2 102 21 203 42 146 31 183 43 188 57 4 14 9 16 19
7 8 -7 21 -10 30 -8 13 2 11 10 -11 40 -24 33 -27 68 -7 68 4 0 21 -23 36 -50
19 -33 35 -50 47 -50 18 0 16 6 -15 55 -39 60 -42 70 -21 78 10 4 26 -14 51
-59 20 -35 43 -64 50 -64 23 0 18 17 -26 82 -36 53 -39 62 -26 75 13 13 19 7
52 -49 58 -96 60 -98 74 -89 10 7 1 27 -39 86 -41 61 -49 79 -39 86 24 15 27
11 76 -72 44 -75 66 -99 79 -86 3 3 -21 46 -55 95 -44 67 -57 92 -48 101 6 6
16 11 21 11 6 0 37 -45 70 -100 32 -55 64 -100 72 -100 8 0 14 2 14 5 0 3 -30
50 -66 105 -56 83 -65 102 -54 115 7 8 16 15 20 15 16 0 121 -194 116 -213 -4
-17 -1 -19 27 -14 360 64 981 158 1040 158 9 0 17 2 17 5 0 7 -152 242 -173
267 -16 20 53 -104 108 -193 12 -19 25 -42 30 -50 5 -8 -7 -1 -27 17 -20 17
-46 34 -57 38 -11 3 -45 44 -76 90 -57 86 -86 117 -45 48 13 -21 32 -53 43
-72 l20 -34 -21 12 c-70 37 -88 143 -39 217 l28 42 -20 57 c-25 70 -72 145
-116 184 -19 16 -32 31 -29 33 10 11 131 -14 202 -42 95 -36 204 -100 450
-263 l189 -125 49 -86 c27 -47 55 -86 62 -86 7 0 -11 34 -39 76 -28 42 -45 73
-38 69 33 -19 115 -80 121 -91 4 -6 17 -22 28 -35 l21 -24 -7 25 c-7 24 -6 25
14 7 14 -13 32 -17 63 -15 l42 3 -114 77 c-63 42 -235 158 -383 258 -284 191
-401 255 -531 291 -158 43 -280 13 -467 -116 -44 -30 -83 -55 -88 -55 -4 0
-33 12 -65 26 -46 21 -68 25 -114 22 -53 -4 -77 -16 -367 -191 -171 -103 -314
-187 -317 -187 -9 0 -410 259 -1202 775 -197 128 -245 144 -338 111z m249
-121 c71 -42 215 -131 321 -198 l191 -121 189 -319 c103 -176 190 -324 191
-328 2 -5 -1 -9 -8 -9 -6 0 -119 163 -250 362 -229 346 -291 433 -197 275 24
-39 82 -137 129 -217 253 -431 250 -426 228 -418 -5 2 -110 156 -234 343 -123
187 -231 349 -241 360 -18 23 22 -52 76 -140 117 -192 320 -547 315 -552 -12
-12 -37 22 -76 102 -23 45 -57 100 -77 121 -31 34 -160 221 -311 454 -23 36
-42 62 -42 57 0 -4 11 -24 24 -45 26 -41 103 -172 178 -301 27 -46 47 -85 45
-87 -1 -2 -13 -1 -25 3 -34 8 -165 210 -157 241 4 17 -3 31 -27 56 -18 18 -40
37 -49 42 -8 5 -28 27 -42 49 -15 22 -27 34 -27 28 0 -7 5 -15 10 -18 6 -3 10
-10 10 -15 0 -4 -17 1 -37 11 -21 11 -58 19 -84 19 -57 0 -97 14 -106 36 -3 9
2 49 11 89 16 69 16 75 0 107 -9 18 -33 48 -53 67 -49 46 -27 36 125 -54z
m601 -375 c37 -23 59 -48 88 -98 21 -37 90 -154 153 -261 124 -211 129 -221
114 -221 -6 0 -86 114 -178 253 -209 315 -236 357 -230 357 3 0 27 -14 53 -30z
m-1750 -133 c-25 -34 -61 -82 -81 -106 -64 -76 -47 -87 114 -73 58 5 111 7
118 4 32 -11 4 -42 -166 -181 -51 -42 -54 -43 -68 -25 -14 18 -14 18 -4 -4 9
-19 7 -26 -17 -47 -31 -27 -29 -28 -76 36 -10 13 -7 3 6 -23 l25 -46 -28 -27
-27 -26 -53 81 c-29 44 -54 80 -57 80 -5 0 40 -79 74 -130 l23 -34 -22 -23
c-12 -13 -25 -23 -30 -23 -5 0 -38 45 -73 100 -36 55 -68 100 -71 100 -6 0
-12 10 65 -119 l62 -104 -24 -25 -25 -25 -93 139 c-109 163 -110 156 -5 -21
42 -70 76 -130 76 -133 0 -3 -7 -13 -16 -23 -23 -26 -11 -47 40 -70 40 -17 51
-31 115 -139 39 -67 71 -124 71 -129 0 -5 -6 -14 -13 -20 -14 -11 -8 -21 -324
461 -57 86 -103 159 -103 162 0 6 253 222 340 289 148 115 285 208 288 198 2
-6 -16 -39 -41 -74z m1992 -81 c154 -262 182 -316 176 -326 -5 -7 -70 83 -166
229 -88 133 -159 244 -159 247 0 2 22 -10 48 -28 38 -24 60 -52 101 -122z
m1426 134 c-3 -5 -16 -39 -29 -74 -13 -36 -40 -84 -59 -108 -59 -74 -61 -81
-30 -136 25 -45 26 -50 11 -71 -16 -22 -16 -22 -59 43 -56 85 -62 78 -8 -8 42
-66 42 -68 23 -87 -19 -19 -20 -18 -73 66 -30 47 -56 84 -58 81 -2 -2 18 -41
46 -86 28 -45 51 -84 51 -87 0 -3 -8 -12 -17 -19 -16 -11 -24 -3 -76 77 l-59
90 45 40 c25 21 71 74 103 115 33 45 84 96 123 125 69 51 76 55 66 39z m-190
-21 c5 -6 -8 -26 -35 -54 -40 -41 -45 -43 -57 -27 -13 15 -13 15 -3 -5 8 -17
7 -28 -2 -43 -17 -27 -21 -26 -51 17 -34 48 -36 34 -2 -15 25 -36 25 -37 5
-56 -11 -11 -21 -18 -23 -15 -4 4 -77 115 -91 137 -9 15 84 59 149 71 43 9 94
4 110 -10z m-222 -136 c45 -75 46 -77 26 -91 -11 -8 -21 -12 -23 -11 -1 2 -24
37 -51 77 -48 73 -73 99 -37 40 65 -109 72 -124 60 -136 -7 -7 -15 -12 -20
-12 -8 0 -108 145 -108 157 1 9 78 52 95 52 6 1 32 -34 58 -76z m-2340 -125
c30 -51 100 -171 156 -265 55 -95 146 -250 202 -344 55 -94 99 -173 97 -175
-2 -2 -92 130 -200 294 -108 163 -232 351 -276 417 l-80 120 21 23 c11 12 22
22 23 22 1 0 27 -42 57 -92z m-9 -133 c52 -88 92 -162 90 -164 -2 -2 -13 -1
-26 3 -16 4 -53 52 -116 148 -88 134 -92 142 -75 160 9 10 20 17 25 16 5 -2
51 -75 102 -163z m-1055 -399 c165 -281 191 -330 179 -342 -12 -12 -44 31
-220 298 -113 172 -209 319 -213 327 -8 14 45 65 56 53 3 -4 93 -155 198 -336z
m-74 -56 c175 -298 206 -360 178 -360 -4 0 -30 35 -58 78 -27 42 -124 189
-214 326 l-165 249 29 23 c16 13 30 22 32 21 1 -2 90 -153 198 -337z m-168
108 c55 -95 144 -247 197 -337 55 -94 94 -171 91 -180 -3 -9 -9 -11 -15 -5
-10 10 -313 466 -387 583 l-46 73 24 19 c13 10 27 19 30 19 3 0 50 -78 106
-172z"/>
<path d="M3856 6625 c15 -27 31 -54 35 -60 4 -5 111 -188 238 -405 128 -217
233 -395 234 -396 5 -6 57 9 57 16 0 5 -49 82 -108 172 -60 89 -185 280 -279
423 -180 274 -221 332 -177 250z"/>
<path d="M3760 6640 c7 -14 39 -68 70 -120 66 -110 328 -556 344 -585 69 -124
110 -185 124 -184 56 2 53 9 -60 179 -60 91 -190 289 -290 440 -173 263 -216
325 -188 270z"/>
<path d="M3945 6623 c8 -16 122 -210 254 -433 226 -383 241 -405 266 -403 15
1 29 4 32 6 2 3 -103 166 -233 363 -130 198 -257 389 -280 427 -44 67 -68 92
-39 40z"/>
<path d="M6955 5270 c-27 -93 -47 -171 -44 -174 7 -6 191 22 200 31 9 9 -84
288 -100 306 -4 4 -30 -69 -56 -163z"/>
<path d="M7525 4159 c-542 -52 -1204 -150 -1790 -268 -210 -42 -528 -111 -532
-115 -2 -2 29 -14 69 -26 254 -76 398 -212 381 -361 l-5 -44 78 -1 c84 -1 154
-25 190 -65 17 -18 38 -19 713 -19 l696 0 23 43 c140 251 228 469 296 735 l34
132 -31 -1 c-18 -1 -72 -6 -122 -10z"/>
<path d="M5055 3733 c127 -28 292 -80 283 -89 -2 -2 -38 8 -79 21 -80 25 -237
56 -279 54 -14 0 19 -9 72 -19 105 -20 145 -30 226 -62 76 -30 59 -31 -31 -3
-83 27 -232 56 -276 54 -14 0 17 -9 70 -19 112 -21 195 -44 262 -72 65 -28 54
-32 -17 -7 -75 26 -206 56 -276 63 -37 4 -18 -3 55 -19 110 -24 252 -70 269
-85 5 -5 -24 2 -65 15 -85 27 -217 55 -251 54 -13 0 15 -9 62 -19 95 -20 211
-59 256 -84 30 -18 24 -17 -66 16 -67 24 -216 58 -250 57 -14 0 13 -9 60 -20
101 -23 201 -54 253 -81 56 -28 45 -29 -24 -3 -69 28 -203 62 -269 70 -30 3
-20 -1 30 -13 205 -50 322 -106 410 -194 l58 -59 28 36 c41 54 44 121 10 180
-33 56 -85 95 -192 146 -83 40 -266 90 -319 88 -20 -1 -23 -3 -10 -6z"/>
<path d="M4673 3539 c-252 -22 -488 -125 -541 -235 l-17 -36 30 -23 c41 -33
164 -83 271 -110 247 -63 596 -58 844 12 58 16 202 82 234 108 19 14 18 15 -7
54 -79 119 -284 206 -544 231 -111 11 -140 11 -270 -1z m186 -88 c20 -15 55
-38 79 -50 44 -22 48 -41 9 -41 -22 0 -22 -1 3 -19 13 -11 50 -32 82 -47 64
-30 66 -44 7 -44 -21 0 -39 -4 -39 -9 0 -5 30 -26 68 -47 l67 -38 -55 -13
c-126 -29 -448 -26 -563 5 -28 7 -27 9 42 46 39 22 68 43 65 48 -3 4 -23 8
-45 8 -40 0 -52 13 -21 25 9 3 46 22 81 42 l64 36 -29 12 -29 12 40 21 c22 11
58 34 80 51 22 17 44 31 49 31 4 0 25 -13 45 -29z"/>
<path d="M3915 3499 c-71 -14 -365 -67 -550 -98 -353 -58 -454 -73 -930 -134
-16 -2 327 -5 762 -6 l793 -1 -8 48 c-4 26 -7 82 -7 125 0 46 -4 77 -10 76 -5
-1 -28 -5 -50 -10z"/>
<path d="M5669 3323 c-28 -4 -39 -31 -39 -92 0 -25 3 -26 53 -26 28 0 68 -4
87 -8 24 -5 30 -4 20 3 -13 9 -13 10 0 10 12 0 12 2 2 9 -10 6 -8 10 8 14 12
3 19 10 16 15 -3 6 0 13 6 16 7 3 0 3 -17 1 l-30 -5 29 11 c21 9 25 14 15 20
-11 7 -9 9 6 9 l20 1 -20 8 c-27 11 -123 19 -156 14z"/>
<path d="M2355 3200 c-5 -9 117 -15 525 -28 l265 -9 -240 -1 c-132 -1 -304 -5
-383 -9 -127 -5 -141 -8 -128 -21 12 -13 73 -17 348 -24 445 -11 477 -14 193
-17 -376 -5 -506 -13 -495 -30 7 -12 62 -16 292 -23 459 -12 482 -14 292 -16
-99 -1 -263 -5 -363 -9 -172 -6 -180 -7 -165 -24 13 -14 36 -17 147 -19 73 -1
233 -5 357 -9 l225 -6 -340 -8 c-186 -4 -341 -10 -344 -13 -3 -2 2 -11 10 -19
11 -11 82 -15 349 -22 l335 -8 -175 -6 c-96 -4 -239 -7 -317 -8 -79 0 -143 -5
-143 -10 0 -25 42 -30 340 -38 337 -9 335 -10 -37 -21 -230 -7 -241 -8 -228
-25 12 -16 40 -19 291 -25 309 -8 279 -19 -56 -21 l-194 -1 20 -21 c24 -24 43
-25 329 -29 118 -1 190 -5 175 -10 -14 -4 -118 -8 -232 -9 -115 -1 -208 -4
-208 -7 0 -3 10 -14 23 -24 20 -16 44 -19 222 -20 110 0 216 -5 235 -9 23 -6
-44 -9 -190 -10 l-225 -2 30 -24 c29 -24 36 -25 185 -26 85 0 178 -4 205 -9
35 -5 -8 -8 -137 -9 -104 0 -188 -5 -188 -9 0 -22 62 -42 132 -42 40 0 125 -3
188 -8 l115 -7 -178 -5 -179 -5 30 -22 c26 -19 48 -23 203 -30 l174 -8 -155
-5 -155 -5 46 -28 c26 -15 51 -27 55 -26 5 1 54 0 109 -2 l100 -3 -100 -5
-100 -6 46 -27 c39 -24 58 -28 130 -30 l84 -2 -74 -5 -75 -6 51 -27 c28 -16
60 -28 72 -28 12 0 20 -4 17 -9 -7 -11 158 -88 313 -146 279 -103 560 -160
866 -174 410 -20 803 42 1180 183 123 47 295 128 289 137 -3 5 4 9 16 9 11 0
44 13 72 30 l52 29 -74 4 -75 3 88 2 c77 2 92 5 129 30 l42 27 -110 6 -109 5
120 2 c113 2 124 4 163 30 l43 27 -153 5 c-127 5 -137 6 -63 9 203 6 263 15
287 39 l22 22 -179 2 c-163 1 -171 2 -85 8 52 4 141 8 197 9 93 1 104 3 130
26 l28 24 -195 2 c-135 1 -180 4 -145 9 28 5 122 9 211 9 158 1 161 1 184 26
l23 25 -209 0 c-139 0 -204 4 -194 10 8 5 107 10 226 10 l211 0 23 25 23 25
-226 0 c-125 0 -227 4 -227 9 0 5 108 10 240 13 232 4 241 5 262 26 l22 22
-184 1 c-329 3 -362 14 -62 21 265 6 302 11 302 39 0 5 -78 10 -172 10 -95 1
-225 4 -288 8 -97 5 -66 7 190 14 278 6 306 9 323 26 18 18 12 19 -295 27
l-313 8 325 9 c291 7 327 10 343 26 17 17 9 18 -209 24 -125 4 -277 8 -338 9
-127 2 196 14 441 17 120 1 144 4 159 19 17 16 10 17 -137 23 -85 4 -246 8
-359 10 -215 3 -188 5 263 17 231 6 279 10 287 22 8 13 -5 16 -93 21 -56 4
-219 8 -362 9 l-260 3 200 7 c110 5 280 10 379 13 136 3 180 8 187 18 11 19
-102 26 -466 30 l-280 2 280 9 c385 11 505 18 505 29 0 6 -261 8 -657 7 l-658
-3 3 -91 c5 -120 -9 -165 -73 -230 -40 -41 -62 -55 -110 -69 -33 -10 -67 -20
-75 -22 -11 -4 -9 -9 10 -21 14 -9 55 -45 91 -81 73 -74 99 -130 99 -216 0
-113 -63 -208 -197 -296 -192 -125 -471 -196 -815 -206 -474 -15 -893 105
-1075 306 -52 57 -67 98 -71 187 -3 71 -1 87 21 130 42 82 111 146 228 212
l55 31 -27 176 c-15 96 -31 180 -34 185 -7 12 -1633 12 -1640 0z"/>
<path d="M4044 3143 c3 -16 17 -104 31 -198 35 -234 32 -224 60 -282 60 -122
230 -236 430 -288 86 -23 112 -25 185 -20 133 10 339 49 326 62 -2 2 -43 -3
-91 -12 -48 -8 -111 -15 -139 -14 -46 1 -43 2 34 14 84 12 209 41 219 50 6 7
5 7 -84 -10 -44 -9 -129 -18 -190 -20 l-110 -4 90 9 c101 11 233 36 267 51 24
10 7 9 -127 -12 -33 -5 -85 -8 -115 -7 -45 1 -48 2 -15 5 99 9 292 49 283 58
-2 2 -40 -2 -84 -10 -44 -8 -127 -16 -184 -19 l-105 -5 108 13 c115 15 261 45
254 52 -2 2 -48 -3 -103 -11 -54 -8 -126 -14 -159 -14 l-60 2 80 8 c84 9 278
49 271 56 -3 3 -46 -2 -97 -11 -51 -9 -115 -16 -143 -15 -46 1 -42 3 34 14 84
12 209 41 219 50 6 7 6 7 -87 -10 -45 -8 -128 -16 -185 -19 l-102 -5 108 13
c121 16 254 44 261 54 2 4 -41 0 -97 -10 -56 -9 -127 -17 -157 -17 -47 1 -40
3 45 15 87 12 248 51 220 53 -5 1 -44 -5 -85 -13 -41 -8 -124 -17 -185 -20
l-110 -5 90 10 c106 12 258 44 283 59 15 10 15 10 -3 6 -59 -15 -218 -36 -270
-35 l-60 2 70 8 c92 10 246 39 265 50 21 12 6 11 -90 -6 -47 -8 -110 -14 -140
-13 -38 1 -44 2 -20 5 51 5 189 31 233 44 63 17 36 20 -46 4 -42 -8 -120 -17
-174 -19 l-98 -5 100 13 c112 14 253 44 259 55 3 4 -41 -1 -97 -11 -56 -9
-129 -17 -162 -16 -33 1 -45 3 -25 5 108 11 297 49 288 58 -2 2 -40 -2 -83
-10 -44 -7 -125 -16 -180 -19 l-100 -5 105 14 c125 17 239 41 260 56 12 8 11
9 -5 5 -49 -14 -225 -36 -275 -34 -30 0 -41 3 -25 5 165 19 322 50 312 60 -3
2 -45 -3 -93 -11 -49 -8 -129 -17 -179 -19 -97 -6 -103 -7 100 23 73 11 188
40 182 46 -2 2 -39 -3 -83 -12 -324 -62 -762 2 -991 146 l-65 40 6 -27z"/>
<path d="M5635 3161 c-15 -6 -22 -24 -32 -82 -6 -41 -12 -86 -12 -101 -1 -25
1 -27 22 -19 12 5 52 16 89 25 76 17 136 51 167 95 l21 29 -33 21 c-57 35
-171 52 -222 32z"/>
<path d="M5728 2965 c-3 -3 -36 -11 -73 -18 -76 -13 -75 -13 -88 -108 l-6 -46
63 18 c89 24 102 33 101 66 0 15 -4 34 -8 40 -5 8 -3 11 5 8 10 -4 14 3 14 20
0 27 0 28 -8 20z"/>
<path d="M5579 2755 c-18 -9 -29 -26 -33 -48 -3 -18 -15 -50 -25 -70 l-19 -38
34 -50 c19 -28 34 -56 34 -62 0 -6 3 -8 6 -5 3 3 -2 22 -10 42 -20 47 -12 46
13 -1 11 -21 20 -32 21 -25 0 7 -7 26 -15 42 -9 17 -13 30 -10 30 2 0 13 -17
24 -37 11 -21 20 -32 21 -25 0 7 -5 22 -10 33 -6 10 -8 19 -6 19 3 0 15 -17
26 -37 12 -21 19 -31 17 -23 -15 54 -14 60 3 25 20 -42 27 -35 10 9 -14 38 -2
32 15 -6 9 -21 14 -26 15 -15 0 10 -5 27 -10 38 -6 10 -8 19 -5 19 3 0 15 -19
25 -42 11 -24 18 -33 15 -20 -3 12 -7 32 -10 45 -3 12 4 4 14 -18 20 -42 28
-35 11 9 -14 37 -3 32 15 -6 l15 -33 -5 30 -5 30 15 -27 c20 -35 28 -36 15 -2
-16 42 -10 42 11 -1 19 -38 21 -28 4 32 -3 10 4 0 15 -22 23 -47 27 -21 5 32
-23 54 -78 116 -139 157 -61 41 -61 41 -97 21z"/>
<path d="M3907 2670 c-175 -193 -46 -407 319 -529 153 -51 401 -91 566 -91 92
0 68 17 -34 25 -413 30 -698 173 -698 350 0 37 19 84 49 120 16 20 16 20 -6 1
-22 -18 -32 -11 -15 10 4 5 -5 -3 -20 -18 -16 -16 -28 -24 -28 -19 0 6 5 13
10 16 6 3 10 11 10 17 0 6 -7 5 -17 -3 -16 -13 -17 -12 -4 3 7 10 17 16 21 13
5 -3 12 0 16 6 5 8 3 9 -6 4 -10 -6 -12 -3 -7 11 5 12 -4 7 -23 -14 -37 -40
-39 -32 -3 16 16 20 21 31 12 24 -14 -10 -18 -10 -22 3 -4 9 -13 12 -24 8 -16
-6 -17 -5 -3 13 14 19 14 19 -8 0 -23 -20 -30 -32 -12 -21 6 3 10 1 10 -5 0
-6 5 -8 10 -5 6 3 10 1 10 -5 0 -6 6 -8 13 -4 9 5 9 4 0 -6 -19 -21 -43 -21
-35 -2 5 15 4 15 -11 3 -16 -12 -17 -12 -10 5 6 17 5 18 -13 4 -12 -10 -9 -1
10 25 l29 40 -32 -30 c-25 -23 -31 -26 -25 -10 7 18 6 19 -12 5 -15 -11 -16
-11 -6 0 21 24 13 34 -10 14 l-23 -19 19 22 c10 13 22 20 26 18 4 -3 14 3 21
13 13 15 12 16 -3 3 -20 -15 -25 -2 -6 17 7 7 9 12 6 12 -3 0 -22 -18 -41 -40z"/>
<path d="M5432 2517 c-7 -8 -45 -36 -85 -63 -39 -26 -86 -64 -103 -84 -39 -44
-119 -84 -222 -111 -109 -29 -315 -29 -425 0 -97 25 -191 75 -223 117 -13 17
-51 48 -83 67 -32 20 -64 43 -71 52 -7 8 -16 15 -21 15 -15 0 -39 -58 -39 -95
0 -181 334 -319 730 -302 311 14 547 114 601 253 14 39 3 103 -24 138 -20 24
-24 26 -35 13z"/>
<path d="M4389 2386 c18 -21 88 -52 162 -71 144 -38 395 -37 528 1 60 18 165
64 158 70 -2 2 -37 -7 -78 -21 -147 -51 -352 -68 -512 -44 -82 12 -198 44
-242 67 -28 14 -29 14 -16 -2z"/>
<path d="M3824 2300 c73 -88 233 -178 419 -234 532 -160 1258 -70 1548 192 32
29 59 58 59 64 0 6 -9 -1 -21 -16 -53 -67 -235 -169 -384 -215 -193 -60 -370
-84 -615 -85 -191 0 -306 11 -469 46 -201 43 -395 130 -502 226 -44 39 -55 46
-35 22z"/>
<path d="M4565 1320 c-34 -13 -65 -55 -72 -93 -12 -78 41 -137 122 -137 40 0
52 5 81 34 28 28 34 42 34 75 0 96 -81 156 -165 121z"/>
</g>
</svg>
